<?xml version="1.0" encoding="UTF-8" standalone="no"?><!DOCTYPE svg PUBLIC "-//W3C//DTD SVG 1.1//EN" "http://www.w3.org/Graphics/SVG/1.1/DTD/svg11.dtd"><svg width="100%" height="100%" viewBox="0 0 2500 1313" version="1.1" xmlns="http://www.w3.org/2000/svg" xmlns:xlink="http://www.w3.org/1999/xlink" xml:space="preserve" xmlns:serif="http://www.serif.com/" style="fill-rule:evenodd;clip-rule:evenodd;stroke-linejoin:round;stroke-miterlimit:2;"><rect x="-33.333" y="-0" width="2547.92" height="1333.33"/><g><path d="M813.609,932.06c49.376,-43.354 93.632,-79.645 131.543,-107.875l4.105,-3.058l-3.34,3.881c-43.997,51.161 -96.622,106.532 -156.412,164.585l-0.101,0.08c-0.366,0.249 -3.202,2.894 -18.124,17.779c-11.678,11.662 -19.888,19.632 -25.103,24.369c-5.225,4.737 -12.649,10.865 -22.069,18.21c-9.495,7.402 -17.981,13.021 -25.23,16.706l-0.744,0.382l-0.085,-0.796c-2.007,-19.702 35.792,-63.613 115.56,-134.263m-74.622,59.689c-5.74,5.635 -9.187,9.054 -10.546,10.456c-1.349,1.397 -4.238,4.519 -8.831,9.548c-4.45,4.865 -7.43,8.263 -8.842,10.111c-1.338,1.763 -3.648,4.62 -7.477,9.267c-3.5,4.238 -5.735,7.403 -6.633,9.405c-0.892,2.018 -2.4,4.954 -4.599,8.974c-2.065,3.802 -3.35,7.052 -3.791,9.665c-0.425,2.549 -0.892,5.565 -1.413,9.23c-0.472,3.414 -0.605,6.754 -0.403,9.946c0.642,1.386 1.609,2.06 2.963,2.06c0.504,0 1.614,-0.207 4.078,-1.179c20.966,-10.588 51.734,-35.122 91.397,-72.901c39.706,-37.809 73.793,-72.109 101.322,-101.954c27.482,-29.791 53.274,-58.398 76.666,-85.024l17.87,-20.44c37.794,-26.578 84.318,-55.823 138.282,-86.926c3.112,-2.294 4.833,-4.524 5.045,-6.59c0.09,-0.918 -0.069,-1.614 -0.478,-2.06c-0.43,-0.483 -1.205,-0.728 -2.278,-0.728c-1.12,0 -3,0.6 -5.587,1.785c-36.222,20.822 -73.936,44.033 -112.043,68.976l-3.128,2.045l2.384,-2.884c32.633,-39.493 48.776,-64.001 47.99,-72.848c-0.106,-1.258 -0.557,-2.15 -1.375,-2.719c-0.51,-0.345 -1.089,-0.515 -1.763,-0.515c-1.524,0 -3.394,0.595 -5.56,1.769c-6.006,4.466 -15.013,12.224 -26.701,23.01c-11.784,10.881 -22.803,20.02 -32.722,27.162c-9.984,7.206 -20.254,12.118 -30.53,14.593l-1.216,0.298l0.611,-1.116c4.03,-7.386 11.077,-16.557 20.939,-27.253c9.888,-10.695 18.713,-18.607 26.228,-23.525c3.154,-2.315 4.875,-4.545 5.082,-6.606c0.085,-0.924 -0.075,-1.619 -0.473,-2.065c-0.435,-0.478 -1.211,-0.723 -2.289,-0.723c-1.503,0 -3.361,0.59 -5.523,1.753c-11.183,7.328 -22.197,16.929 -32.738,28.532c-10.52,11.593 -17.758,21.895 -21.528,30.625c-2.22,5.146 -2.735,8.741 -1.53,10.669c0.76,1.211 2.199,1.8 4.397,1.8c8.709,0 21.921,-6.282 39.249,-18.676c17.471,-12.49 32.84,-24.805 45.675,-36.61l4.418,-4.073l-3.568,4.811c-21.247,28.628 -40.742,53.518 -57.931,73.984l-0.133,0.122c-78.859,54.756 -153.847,117.551 -222.866,186.639c-1.057,1.211 -4.466,4.647 -10.101,10.18" style="fill:#fff;fill-rule:nonzero;"/><path d="M1379.1,707.761c2.39,-2.31 3.558,-4.211 3.463,-5.666c-0.059,-0.839 -0.404,-1.959 -2.656,-1.959c-2.278,-0 -5.066,1.2 -8.294,3.568c-30.949,29.457 -55.568,48.367 -73.103,56.152c-3.372,1.673 -6.766,2.523 -10.079,2.523c-3.436,-0 -4.238,-1.96 -4.312,-3.601c1.444,-7.96 3.547,-14.449 6.271,-19.425c2.703,-4.955 7.212,-11.922 13.414,-20.711c6.203,-8.788 10.472,-15.304 12.676,-19.345c0.892,-2.369 1.004,-4.148 0.308,-5.21c-0.6,-0.897 -1.832,-1.349 -3.68,-1.349c-3.436,0.786 -10.318,5.513 -20.328,14.02c-10.185,8.64 -21.534,17.466 -33.716,26.223c-12.32,8.857 -23.137,14.184 -32.138,15.824l-1.275,0.234l0.728,-1.115c7.036,-10.679 16.117,-20.376 26.982,-28.809c10.918,-8.475 21.411,-12.777 31.199,-12.777c2.272,0 4.423,-0.78 6.399,-2.32c1.98,-1.546 3.085,-3.224 3.382,-5.135c0.26,-1.758 -0.637,-2.974 -2.751,-3.712l-0.021,-0.011c-0.929,-0.377 -2.374,-0.574 -4.291,-0.574c-11.497,0 -25.893,7 -42.812,20.807c-16.935,13.833 -27.763,26.801 -32.181,38.548c-0.908,2.023 -1.094,3.52 -0.568,4.492c0.457,0.845 1.497,1.354 3.085,1.53c15.071,-0.006 38.915,-11.784 70.793,-35.006l11.37,-10.977l-2.889,4.344c-13.292,19.967 -20.812,35.229 -22.357,45.345c-0.685,5.443 1.375,8.47 6.287,9.235c10.228,-0.005 22.309,-4.02 35.814,-11.932c13.552,-7.961 24.741,-15.815 33.253,-23.34c8.571,-7.593 19.346,-17.641 32.027,-29.871" style="fill:#fff;fill-rule:nonzero;"/><path d="M909.341,417.212c40.986,-41.522 81.966,-83.049 122.946,-124.571c17.052,-17.274 34.725,-34.135 51.256,-51.93c1.492,-1.609 0.738,-0.515 -0.016,-0.425c-1.45,0.175 -3.494,-0.6 -4.238,-2.772c-0.212,-0.632 -0.377,-1.981 -0.026,-1.476c-0.319,-0.457 0.807,-1.083 -0.117,0.074c-0.366,0.452 -0.669,0.983 -1.004,1.455c-0.961,1.365 -2.012,2.677 -3.048,3.978c-20.27,25.516 -44.734,51.309 -67.399,76.23c-41.426,45.558 -83.23,90.76 -125.092,135.92c-51.186,55.212 -102.511,110.302 -153.879,165.344c-51.526,55.222 -103.106,110.392 -154.681,165.572c-42.005,44.937 -84.02,89.873 -125.935,134.9c-23.467,25.208 -47.157,50.257 -70.092,75.97c-1.949,2.188 -4.344,4.44 -5.953,6.893c-0.627,0.961 -1.243,1.774 -1.338,2.974c-0.781,9.612 16.701,-1.274 19.356,-2.506c41.214,-19.097 82.89,-42.983 115.91,-75.886c18.714,-18.645 39.313,-45.016 36.02,-72.104c-3.404,-27.949 -32.606,-40.025 -56.571,-45.006c-42.367,-8.804 -88.439,-4.232 -132.096,2.443c-6.93,1.057 -14.466,1.747 -21.199,4.264c-6.511,2.438 -6.341,8.858 -0.106,10.43c6.574,1.657 14.109,1.423 20.949,1.635c30.168,0.935 60.538,0.319 90.829,-0.116c47.22,-0.685 94.461,-1.726 141.702,-2.73c56.492,-1.205 112.989,-2.416 169.471,-3.415c59.131,-1.051 118.256,-1.89 177.34,-2.23c53.953,-0.308 107.891,-0.234 161.717,0.882c42.159,0.871 84.366,2.134 126.127,5.899c14.349,1.296 27.874,2.746 41.671,5.327c4.997,0.934 9.978,2.002 14.831,3.43c1.923,0.563 3.835,1.19 5.698,1.907c2.316,0.881 1.53,0.478 3.744,1.715c0.606,0.34 1.185,0.712 1.763,1.078c0.754,0.467 1.524,1.179 0.855,0.611c0.388,0.329 0.802,0.727 1.084,1.152c0.621,0.924 -0.632,-0.706 0.249,0.457c0.356,0.462 -0.064,-0.149 0.053,0.685c-0.032,-0.239 0.377,-0.892 -0.138,0.271c-0.217,0.472 0.563,-0.797 -0.356,0.536c-0.897,1.306 0.42,-0.308 -0.483,0.621c-0.504,0.521 -1.035,0.999 -1.572,1.492c-0.616,0.558 -1.864,1.429 -1.099,0.893c-0.781,0.552 -1.572,1.072 -2.384,1.577c-4.126,2.57 -8.561,4.593 -12.979,6.457c-12.84,5.417 -28.899,10.212 -43.147,14.2c-5.114,1.429 -3.685,9.378 1.45,7.939c15.31,-4.28 30.683,-8.868 45.494,-15.177c7.084,-3.011 16.298,-6.755 21.061,-13.483c10.653,-15.055 -16.319,-21.114 -24.959,-23.02c-30.041,-6.628 -61.775,-8.216 -92.809,-9.883c-47.125,-2.538 -94.488,-3.356 -141.862,-3.739c-56.237,-0.456 -112.538,-0.132 -168.87,0.51c-58.76,0.664 -117.551,1.705 -176.342,2.884c-53.821,1.072 -107.647,2.278 -161.468,3.372c-41.532,0.85 -83.081,1.704 -124.571,1.981c-22.484,0.154 -45.457,1.025 -67.654,-1.27c-2.06,-0.212 -0.149,0.059 -2.39,-0.355c-0.371,-0.069 -0.738,-0.223 -1.11,-0.266c-1.232,-0.127 -0.106,-0.674 -0.01,0.085c-0.027,-0.234 -0.584,-0.966 0.271,0.308c0.934,1.386 1.003,2.65 0.138,4.471c-0.691,1.445 -1.556,0.409 -0.298,0.627c-0.717,-0.122 -0.913,0.313 0.213,-0.037c0.536,-0.159 1.067,-0.324 1.603,-0.473c1.355,-0.382 2.725,-0.674 4.084,-0.966c4.227,-0.903 8.476,-1.599 12.719,-2.262c42.042,-6.612 93.823,-13.733 134.751,-5.847c22.489,4.333 51.096,16.064 51.951,43.832c0.871,28.155 -22.649,56.72 -42.658,74.196c-17.004,14.848 -36.785,26.552 -56.041,37.885c-11.258,6.627 -29.356,13.138 -41.017,18.889c-5.964,2.936 -11.975,5.772 -18.024,8.507c-1.964,0.892 -6.101,1.88 -7.535,3.372c1.487,1.668 2.984,3.346 4.471,5.013c0.006,-0.016 0.011,-0.026 0.016,-0.042c-9.84,2.352 0.282,0.876 -0.398,0.833c0.122,0.011 1.131,-1.465 1.248,-1.587c-1.078,1.157 1.497,-1.716 2.097,-2.406c3.065,-3.473 6.176,-6.888 9.288,-10.313c10.956,-12.028 22.017,-23.966 33.079,-35.903c37.003,-39.913 74.165,-79.667 111.316,-119.436c49.063,-52.515 98.152,-105.008 147.22,-157.527c52.286,-55.983 104.545,-111.991 156.704,-168.095c45.908,-49.371 91.758,-98.805 137.342,-148.484c30.094,-32.786 60.289,-65.541 89.512,-99.129c6.479,-7.44 13.643,-14.896 19.144,-23.127c1.763,-2.644 3.696,-6.383 0.43,-8.464c-3.032,-1.928 -5.958,0.902 -8.119,3.085c-44.634,45.223 -89.262,90.452 -133.902,135.675c-13.127,13.302 -26.254,26.6 -39.381,39.902c-3.845,3.898 1.327,9.734 5.193,5.82" style="fill:#fff;fill-rule:nonzero;"/><path d="M1162.01,676.648c-18.602,5.226 -39.637,12.305 -45.367,33.626c-2.161,8.024 -1.349,15.926 0.409,23.589c1.476,6.409 2.002,13.021 -0.94,19.515c-4.854,10.711 -16.765,16.834 -27.216,20.435c-7.094,2.448 -16.191,4.561 -22.399,5.156c0.446,2.432 0.892,4.859 1.338,7.291c51.968,-32.77 103.935,-65.535 155.908,-98.306c7.259,-4.577 14.524,-9.16 21.794,-13.738c4.407,-2.782 1.088,-9.564 -3.362,-6.754c-51.972,32.765 -103.945,65.53 -155.913,98.3c-7.264,4.583 -14.529,9.16 -21.788,13.738c-3.101,1.96 -2.868,7.695 1.338,7.291c16.972,-1.625 37.476,-7.296 50.146,-20.328c9.989,-10.27 11.55,-22.882 8.63,-35.463c-3.266,-14.104 -0.319,-28.028 13.116,-36.987c8.077,-5.39 16.76,-7.296 25.729,-9.818c4.949,-1.392 3.553,-8.943 -1.423,-7.547" style="fill:#fff;fill-rule:nonzero;"/><path d="M1379.97,522.077c24.194,-18.608 48.388,-37.215 72.588,-55.823c-1.556,-1.848 -3.112,-3.69 -4.663,-5.533c-12.596,12.192 -25.097,24.486 -37.571,36.795c-28.904,28.512 -57.602,57.22 -86.017,86.199c-31.995,32.627 -63.709,65.556 -94.44,99.32c-22.044,24.215 -45.521,49.068 -63.173,76.448c-3.696,5.735 -9.526,14.195 -8.321,20.822c1.328,7.307 10.116,5.841 16.096,3.739c2.496,-0.877 4.97,-1.928 7.408,-3.043c4.869,-2.22 1.97,-8.97 -2.889,-6.755c-3.537,1.614 -7.063,3.213 -10.971,3.76c0.18,-0.027 -1.864,-0.08 -1.848,-0.08c-0.229,0.021 0.17,0.053 0.021,0.005c0.133,0.043 -0.122,0.6 -0.037,-0.43c-0,-0.058 -0.101,0.473 0.101,-0.77c0.228,-1.423 0.159,-1.104 1.009,-3.186c1.64,-3.993 3.52,-6.967 5.852,-10.552c17.03,-26.196 39.328,-50.034 60.426,-73.304c29.468,-32.489 59.912,-64.144 90.612,-95.524c28.081,-28.702 56.449,-57.134 85.008,-85.364c14.121,-13.956 29.292,-27.391 42.77,-41.941c0.197,-0.213 0.42,-0.409 0.627,-0.606c3.919,-3.802 -0.34,-8.863 -4.663,-5.533c-24.199,18.607 -48.393,37.215 -72.587,55.823c-4.323,3.324 0.361,8.841 4.662,5.533" style="fill:#fff;fill-rule:nonzero;"/><path d="M1406.49,701.652c-6.171,-7.54 -18.661,-6.34 -27.396,-2.055c-14.514,7.122 -25.416,20.971 -33.594,33.647c-5.358,8.305 -13.701,20.833 -11.794,30.566c2.241,11.423 17.519,3.951 24.263,-0.196c9.59,-5.9 18.22,-13.207 26.817,-20.27c13.558,-11.141 26.844,-22.553 40.014,-34.066c37.385,-32.68 73.841,-66.289 109.24,-100.77c37.629,-36.652 74.43,-74.308 107.737,-114.263c13.589,-16.314 26.69,-33.073 37.996,-50.714c8.236,-12.857 16.186,-26.595 19.802,-40.959c2.501,-9.92 2.815,-20.966 -4.471,-28.613c-8.061,-8.454 -22.113,-9.739 -34.178,-9.304c-23.121,0.834 -46.89,6.872 -69.672,11.63c-29.754,6.219 -59.386,13.159 -88.922,20.498c-66.083,16.415 -131.756,34.794 -197.042,54.442c-61.303,18.454 -122.351,38.001 -182.688,59.53c-40.784,14.55 -82.815,29.143 -121.141,49.408c-7.838,4.147 -18.607,9.256 -23.339,16.791c-4.699,7.482 2.857,11.603 9.713,12.702c14.614,2.353 30.689,0.404 45.611,-1.131c21.81,-2.241 43.588,-5.358 65.397,-7.684c50.991,-5.438 102.034,-9.458 153.051,-12.952c60.953,-4.174 121.905,-7.493 182.826,-10.286c65.148,-2.979 130.274,-5.342 195.364,-7.137c63.586,-1.758 127.146,-2.979 190.648,-3.521c56.279,-0.478 112.537,-0.446 168.684,0.584c43.253,0.791 86.527,2.018 129.462,5.162c14.779,1.078 29.552,2.352 44.124,4.386c9.495,1.322 19.224,2.772 28.145,5.783c2.193,0.744 1.779,0.505 3.526,1.386c0.52,0.266 1.041,0.542 1.556,0.818c0.398,0.212 1.864,1.195 0.823,0.473c0.361,0.255 0.733,0.573 1.009,0.908c0.627,0.759 -0.69,-0.404 0.244,0.366c0.123,0.101 0.064,-0.032 0.064,-0.032c-0.021,-0.032 -0.52,0.425 0.101,-0.132c-0.319,0.292 -0.478,0.775 -0.802,1.083c1.269,-1.222 -2.644,1.922 -1.407,1.11c-2.905,1.906 -6.203,3.287 -9.447,4.551c-10.058,3.903 -23.233,7.116 -34.624,9.728c-4.827,1.105 -3.415,7.828 1.428,6.713c12.23,-2.799 24.582,-5.805 36.339,-10.366c5.332,-2.066 12.99,-5.008 15.363,-10.403c5.417,-12.342 -22.117,-15.836 -29.642,-17.142c-30.142,-5.231 -61.447,-6.845 -92.332,-8.375c-46.933,-2.331 -94.073,-3.207 -141.235,-3.621c-57.973,-0.505 -116.021,-0.165 -174.106,0.669c-63.268,0.908 -126.578,2.432 -189.915,4.482c-63.513,2.055 -127.057,4.641 -190.622,7.875c-58.085,2.953 -116.191,6.42 -174.292,10.796c-47.066,3.547 -94.153,7.599 -141.155,13.228c-20.414,2.443 -40.832,5.496 -61.282,6.394c-6.394,0.276 -12.894,0.451 -19.171,-0.271c-0.791,-0.096 -3.436,-0.547 -5.029,-1.009c-0.653,-0.191 -2.204,-1.025 -2.108,-0.977c-0.457,-0.207 -0.196,-0.271 -0.191,-0.276c0.218,-0.223 -0.356,0.579 0.239,-0.563c-0.34,0.664 0.186,-0.335 0.711,-0.967c0.808,-0.977 -0.005,-0.122 0.994,-1.078c0.69,-0.669 1.428,-1.301 2.187,-1.917c1.753,-1.423 3.468,-2.591 4.976,-3.563c12.283,-7.886 25.973,-13.961 39.366,-19.824c46.397,-20.312 99.655,-40.858 147.613,-57.007c62.28,-20.976 112.357,-37.794 175.466,-55.934c62.774,-18.044 125.463,-35.999 189.033,-50.576c26.892,-6.165 58.314,-12.001 85.423,-16.86c15.172,-2.719 36.19,-3.526 50.645,1.258c8.555,2.831 12.857,9.331 12.74,17.663c-0.159,11.969 -6.022,24.156 -12.033,35.075c-20.201,36.663 -49.854,69.884 -78.727,101.417c-35.399,38.671 -73.071,75.652 -111.613,111.741c-31.857,29.834 -64.373,59.137 -97.871,87.425c-9.729,8.216 -19.51,16.436 -29.696,24.173c-5.506,4.185 -11.486,8.72 -18.129,10.998c-3.494,1.2 -4.487,1.312 -4.397,-1.827c0.143,-4.737 2.83,-9.882 5.039,-14.205c5.9,-11.545 14.147,-23.222 24.237,-32.271c6.803,-6.097 22.564,-16.808 30.248,-7.419c2.82,3.452 8.603,-1.497 5.799,-4.923" style="fill:#fff;fill-rule:nonzero;"/></g></svg>