<?xml version="1.0" encoding="UTF-8" standalone="no"?><!DOCTYPE svg PUBLIC "-//W3C//DTD SVG 1.1//EN" "http://www.w3.org/Graphics/SVG/1.1/DTD/svg11.dtd"><svg width="100%" height="100%" viewBox="0 0 1042 1042" version="1.1" xmlns="http://www.w3.org/2000/svg" xmlns:xlink="http://www.w3.org/1999/xlink" xml:space="preserve" xmlns:serif="http://www.serif.com/" style="fill-rule:evenodd;clip-rule:evenodd;stroke-linejoin:round;stroke-miterlimit:2;"><rect x="0" y="-0" width="1041.67" height="1041.67"/><g><path d="M372.259,629.037c19.371,-17.008 36.734,-31.245 51.607,-42.32l1.61,-1.2l-1.31,1.522c-17.261,20.071 -37.907,41.794 -61.363,64.569l-0.039,0.031c-0.144,0.098 -1.257,1.136 -7.111,6.975c-4.581,4.575 -7.802,7.703 -9.848,9.561c-2.05,1.858 -4.962,4.262 -8.658,7.144c-3.725,2.904 -7.054,5.108 -9.898,6.554l-0.292,0.15l-0.033,-0.313c-0.787,-7.729 14.042,-24.956 45.335,-52.673m-29.275,23.417c-2.252,2.21 -3.604,3.552 -4.137,4.102c-0.529,0.548 -1.663,1.773 -3.465,3.746c-1.745,1.908 -2.914,3.242 -3.468,3.967c-0.525,0.691 -1.432,1.812 -2.934,3.635c-1.373,1.663 -2.25,2.904 -2.602,3.69c-0.35,0.791 -0.941,1.943 -1.804,3.52c-0.81,1.492 -1.315,2.767 -1.487,3.792c-0.167,1 -0.35,2.183 -0.555,3.621c-0.185,1.34 -0.237,2.65 -0.158,3.902c0.252,0.544 0.631,0.808 1.163,0.808c0.197,0 0.633,-0.081 1.6,-0.462c8.225,-4.154 20.295,-13.779 35.856,-28.6c15.577,-14.833 28.95,-28.29 39.75,-39.998c10.781,-11.688 20.9,-22.91 30.077,-33.356l7.01,-8.019c14.827,-10.427 33.079,-21.9 54.25,-34.102c1.221,-0.9 1.896,-1.775 1.979,-2.586c0.036,-0.36 -0.027,-0.633 -0.187,-0.808c-0.169,-0.189 -0.473,-0.285 -0.894,-0.285c-0.439,-0 -1.177,0.235 -2.191,0.7c-14.211,8.168 -29.007,17.275 -43.957,27.06l-1.227,0.802l0.936,-1.131c12.802,-15.494 19.135,-25.108 18.827,-28.579c-0.042,-0.494 -0.219,-0.844 -0.54,-1.067c-0.2,-0.135 -0.427,-0.202 -0.692,-0.202c-0.597,0 -1.331,0.233 -2.181,0.694c-2.356,1.752 -5.889,4.796 -10.475,9.027c-4.623,4.269 -8.946,7.854 -12.837,10.656c-3.917,2.827 -7.946,4.754 -11.977,5.725l-0.477,0.117l0.239,-0.438c1.581,-2.898 4.346,-6.496 8.215,-10.691c3.879,-4.196 7.341,-7.3 10.289,-9.23c1.238,-0.908 1.913,-1.783 1.994,-2.591c0.033,-0.363 -0.029,-0.636 -0.185,-0.811c-0.171,-0.187 -0.475,-0.283 -0.898,-0.283c-0.59,0 -1.319,0.231 -2.167,0.688c-4.387,2.875 -8.708,6.641 -12.844,11.193c-4.127,4.548 -6.966,8.59 -8.446,12.015c-0.87,2.019 -1.072,3.429 -0.6,4.185c0.298,0.475 0.863,0.707 1.725,0.707c3.417,-0 8.6,-2.465 15.398,-7.328c6.855,-4.9 12.884,-9.731 17.919,-14.362l1.733,-1.598l-1.4,1.888c-8.335,11.231 -15.983,20.995 -22.727,29.025l-0.052,0.047c-30.937,21.482 -60.356,46.117 -87.433,73.221c-0.415,0.475 -1.752,1.823 -3.963,3.994" style="fill:#fff;fill-rule:nonzero;"/><path d="M594.108,541.042c0.938,-0.906 1.396,-1.652 1.358,-2.223c-0.023,-0.329 -0.158,-0.769 -1.041,-0.769c-0.894,0 -1.988,0.471 -3.254,1.4c-12.142,11.557 -21.8,18.975 -28.68,22.029c-1.323,0.657 -2.654,0.99 -3.954,0.99c-1.348,0 -1.662,-0.769 -1.691,-1.412c0.566,-3.123 1.391,-5.669 2.46,-7.621c1.06,-1.944 2.829,-4.677 5.262,-8.125c2.434,-3.448 4.109,-6.004 4.973,-7.59c0.35,-0.929 0.394,-1.627 0.121,-2.044c-0.235,-0.352 -0.719,-0.529 -1.444,-0.529c-1.347,0.309 -4.047,2.163 -7.975,5.5c-3.995,3.39 -8.447,6.852 -13.227,10.288c-4.833,3.475 -9.077,5.564 -12.608,6.208l-0.5,0.092l0.285,-0.438c2.761,-4.189 6.323,-7.994 10.586,-11.302c4.283,-3.325 8.4,-5.012 12.239,-5.012c0.892,-0 1.736,-0.307 2.511,-0.911c0.777,-0.606 1.21,-1.264 1.327,-2.014c0.102,-0.69 -0.25,-1.167 -1.079,-1.457l-0.009,-0.004c-0.364,-0.148 -0.931,-0.225 -1.683,-0.225c-4.51,0 -10.158,2.746 -16.796,8.163c-6.643,5.427 -10.891,10.514 -12.625,15.123c-0.356,0.793 -0.429,1.381 -0.223,1.762c0.18,0.331 0.588,0.531 1.211,0.6c5.912,-0.002 15.266,-4.623 27.773,-13.733l4.46,-4.306l-1.133,1.704c-5.215,7.833 -8.165,13.821 -8.771,17.789c-0.269,2.136 0.54,3.323 2.467,3.623c4.012,-0.002 8.752,-1.577 14.05,-4.681c5.316,-3.123 9.706,-6.204 13.045,-9.156c3.363,-2.979 7.59,-6.921 12.565,-11.719" style="fill:#fff;fill-rule:nonzero;"/><path d="M409.817,427.056c16.079,-16.29 32.156,-32.582 48.233,-48.871c6.689,-6.777 13.623,-13.392 20.108,-20.373c0.586,-0.631 0.29,-0.202 -0.006,-0.167c-0.569,0.069 -1.371,-0.235 -1.663,-1.087c-0.083,-0.248 -0.147,-0.777 -0.01,-0.579c-0.125,-0.18 0.317,-0.425 -0.046,0.029c-0.144,0.177 -0.262,0.385 -0.394,0.571c-0.377,0.535 -0.789,1.05 -1.195,1.56c-7.952,10.01 -17.55,20.129 -26.442,29.906c-16.252,17.873 -32.652,35.607 -49.075,53.323c-20.081,21.661 -40.217,43.273 -60.369,64.867c-20.214,21.664 -40.45,43.308 -60.683,64.956c-16.479,17.629 -32.963,35.258 -49.406,52.923c-9.207,9.89 -18.5,19.717 -27.498,29.804c-0.765,0.859 -1.704,1.742 -2.336,2.704c-0.246,0.377 -0.487,0.696 -0.525,1.167c-0.306,3.771 6.552,-0.5 7.594,-0.983c16.169,-7.492 32.519,-16.863 45.473,-29.771c7.342,-7.315 15.423,-17.661 14.131,-28.288c-1.335,-10.964 -12.791,-15.702 -22.194,-17.656c-16.62,-3.454 -34.695,-1.66 -51.822,0.958c-2.719,0.415 -5.675,0.686 -8.317,1.673c-2.554,0.957 -2.488,3.475 -0.042,4.092c2.579,0.65 5.536,0.558 8.219,0.642c11.835,0.366 23.75,0.125 35.633,-0.046c18.525,-0.269 37.059,-0.677 55.592,-1.071c22.162,-0.473 44.327,-0.948 66.485,-1.34c23.198,-0.412 46.394,-0.741 69.573,-0.875c21.167,-0.12 42.327,-0.091 63.444,0.346c16.54,0.342 33.098,0.838 49.481,2.315c5.629,0.508 10.936,1.077 16.348,2.089c1.961,0.367 3.915,0.786 5.819,1.346c0.754,0.221 1.504,0.467 2.235,0.748c0.909,0.346 0.6,0.188 1.469,0.673c0.238,0.133 0.465,0.279 0.692,0.423c0.296,0.183 0.598,0.463 0.335,0.24c0.152,0.129 0.315,0.285 0.425,0.452c0.244,0.362 -0.248,-0.277 0.098,0.179c0.14,0.181 -0.025,-0.058 0.021,0.269c-0.013,-0.094 0.148,-0.35 -0.054,0.106c-0.086,0.185 0.221,-0.313 -0.14,0.21c-0.352,0.513 0.165,-0.121 -0.189,0.244c-0.198,0.204 -0.407,0.392 -0.617,0.585c-0.242,0.219 -0.731,0.561 -0.431,0.35c-0.307,0.217 -0.617,0.421 -0.936,0.619c-1.618,1.009 -3.358,1.802 -5.091,2.534c-5.038,2.125 -11.338,4.006 -16.927,5.57c-2.007,0.561 -1.446,3.68 0.568,3.115c6.007,-1.679 12.038,-3.479 17.848,-5.954c2.779,-1.181 6.394,-2.65 8.263,-5.29c4.179,-5.906 -6.402,-8.283 -9.792,-9.031c-11.785,-2.6 -24.235,-3.223 -36.41,-3.877c-18.488,-0.996 -37.069,-1.317 -55.655,-1.467c-22.062,-0.179 -44.15,-0.052 -66.25,0.2c-23.052,0.261 -46.116,0.669 -69.181,1.131c-21.114,0.421 -42.231,0.894 -63.346,1.323c-16.293,0.334 -32.593,0.669 -48.87,0.777c-8.821,0.061 -17.834,0.403 -26.542,-0.497c-0.808,-0.084 -0.058,0.022 -0.938,-0.14c-0.145,-0.027 -0.289,-0.088 -0.435,-0.104c-0.483,-0.05 -0.042,-0.265 -0.004,0.033c-0.011,-0.092 -0.229,-0.379 0.106,0.121c0.367,0.544 0.394,1.04 0.054,1.754c-0.271,0.567 -0.61,0.161 -0.116,0.246c-0.282,-0.048 -0.359,0.123 0.083,-0.015c0.21,-0.062 0.419,-0.127 0.629,-0.185c0.531,-0.15 1.069,-0.265 1.602,-0.379c1.658,-0.354 3.325,-0.627 4.99,-0.888c16.493,-2.593 36.808,-5.387 52.864,-2.293c8.823,1.7 20.046,6.302 20.382,17.195c0.341,11.046 -8.886,22.252 -16.736,29.109c-6.671,5.825 -14.431,10.416 -21.985,14.862c-4.417,2.6 -11.517,5.154 -16.092,7.411c-2.34,1.152 -4.698,2.264 -7.071,3.337c-0.771,0.35 -2.394,0.738 -2.956,1.323c0.583,0.654 1.171,1.313 1.754,1.967c0.002,-0.007 0.004,-0.011 0.006,-0.017c-3.86,0.923 0.111,0.344 -0.156,0.327c0.048,0.004 0.444,-0.575 0.49,-0.623c-0.423,0.454 0.587,-0.673 0.823,-0.944c1.202,-1.362 2.423,-2.702 3.643,-4.045c4.298,-4.719 8.638,-9.402 12.977,-14.086c14.517,-15.658 29.096,-31.254 43.671,-46.856c19.248,-20.602 38.507,-41.196 57.757,-61.8c20.512,-21.963 41.014,-43.935 61.477,-65.946c18.01,-19.369 35.998,-38.762 53.881,-58.252c11.806,-12.862 23.652,-25.712 35.117,-38.89c2.541,-2.918 5.352,-5.843 7.51,-9.072c0.692,-1.038 1.45,-2.505 0.169,-3.321c-1.19,-0.757 -2.338,0.354 -3.186,1.21c-17.51,17.742 -35.018,35.486 -52.531,53.227c-5.15,5.219 -10.3,10.436 -15.45,15.654c-1.508,1.53 0.521,3.819 2.038,2.284" style="fill:#fff;fill-rule:nonzero;"/><path d="M508.942,528.836c-7.298,2.05 -15.55,4.827 -17.798,13.192c-0.848,3.148 -0.529,6.248 0.16,9.254c0.579,2.514 0.786,5.108 -0.368,7.656c-1.905,4.202 -6.578,6.604 -10.678,8.017c-2.783,0.96 -6.352,1.789 -8.787,2.023c0.175,0.954 0.35,1.906 0.525,2.86c20.387,-12.856 40.775,-25.71 61.165,-38.567c2.847,-1.795 5.697,-3.593 8.55,-5.389c1.729,-1.092 0.427,-3.752 -1.319,-2.65c-20.39,12.854 -40.779,25.708 -61.167,38.564c-2.85,1.798 -5.7,3.594 -8.548,5.39c-1.216,0.769 -1.125,3.019 0.525,2.86c6.659,-0.637 14.702,-2.862 19.673,-7.975c3.919,-4.029 4.531,-8.977 3.386,-13.912c-1.282,-5.533 -0.125,-10.996 5.145,-14.511c3.169,-2.114 6.575,-2.862 10.094,-3.852c1.942,-0.545 1.394,-3.508 -0.558,-2.96" style="fill:#fff;fill-rule:nonzero;"/><path d="M594.452,468.196c9.492,-7.3 18.983,-14.6 28.477,-21.9c-0.61,-0.725 -1.221,-1.448 -1.829,-2.171c-4.942,4.783 -9.846,9.606 -14.74,14.435c-11.339,11.186 -22.598,22.448 -33.746,33.817c-12.552,12.8 -24.993,25.719 -37.05,38.964c-8.647,9.5 -17.858,19.25 -24.783,29.992c-1.45,2.25 -3.737,5.569 -3.264,8.169c0.52,2.866 3.968,2.291 6.314,1.466c0.979,-0.343 1.95,-0.756 2.906,-1.193c1.911,-0.871 0.773,-3.519 -1.133,-2.65c-1.387,0.633 -2.771,1.26 -4.304,1.475c0.071,-0.011 -0.731,-0.032 -0.725,-0.032c-0.09,0.009 0.067,0.021 0.008,0.003c0.052,0.016 -0.048,0.235 -0.014,-0.169c-0,-0.023 -0.04,0.185 0.039,-0.302c0.09,-0.559 0.063,-0.434 0.396,-1.25c0.644,-1.567 1.381,-2.734 2.296,-4.14c6.681,-10.277 15.429,-19.629 23.706,-28.758c11.561,-12.746 23.504,-25.165 35.548,-37.475c11.017,-11.261 22.146,-22.415 33.35,-33.49c5.54,-5.475 11.492,-10.746 16.779,-16.454c0.077,-0.083 0.165,-0.16 0.246,-0.237c1.538,-1.492 -0.133,-3.478 -1.829,-2.171c-9.494,7.3 -18.986,14.6 -28.477,21.9c-1.696,1.304 0.141,3.468 1.829,2.171" style="fill:#fff;fill-rule:nonzero;"/><path d="M604.854,538.645c-2.42,-2.958 -7.32,-2.487 -10.747,-0.806c-5.694,2.794 -9.971,8.227 -13.18,13.2c-2.102,3.258 -5.375,8.173 -4.627,11.992c0.879,4.481 6.873,1.55 9.519,-0.077c3.763,-2.315 7.148,-5.182 10.521,-7.952c5.319,-4.371 10.531,-8.848 15.698,-13.365c14.666,-12.821 28.969,-26.006 42.856,-39.533c14.763,-14.38 29.2,-29.152 42.267,-44.827c5.331,-6.4 10.471,-12.975 14.906,-19.896c3.231,-5.044 6.35,-10.434 7.769,-16.069c0.981,-3.892 1.104,-8.225 -1.754,-11.225c-3.163,-3.317 -8.675,-3.821 -13.409,-3.65c-9.071,0.327 -18.396,2.696 -27.333,4.562c-11.673,2.44 -23.298,5.163 -34.886,8.042c-25.925,6.44 -51.689,13.65 -77.302,21.358c-24.05,7.24 -48,14.909 -71.67,23.355c-16,5.708 -32.49,11.433 -47.525,19.383c-3.075,1.627 -7.3,3.631 -9.157,6.587c-1.843,2.936 1.121,4.553 3.811,4.984c5.733,0.923 12.039,0.158 17.893,-0.444c8.557,-0.879 17.1,-2.102 25.657,-3.015c20.004,-2.133 40.029,-3.71 60.043,-5.081c23.913,-1.637 47.825,-2.939 71.725,-4.035c25.559,-1.169 51.109,-2.096 76.644,-2.8c24.946,-0.69 49.881,-1.169 74.794,-1.381c22.079,-0.188 44.15,-0.175 66.177,0.229c16.969,0.31 33.946,0.791 50.79,2.025c5.798,0.423 11.593,0.923 17.31,1.721c3.725,0.518 7.542,1.087 11.042,2.268c0.86,0.292 0.698,0.198 1.383,0.544c0.204,0.104 0.408,0.213 0.61,0.321c0.157,0.083 0.732,0.469 0.323,0.185c0.142,0.1 0.288,0.225 0.396,0.357c0.246,0.297 -0.271,-0.159 0.096,0.143c0.048,0.04 0.025,-0.012 0.025,-0.012c-0.008,-0.013 -0.204,0.166 0.04,-0.052c-0.125,0.114 -0.188,0.304 -0.315,0.425c0.498,-0.479 -1.037,0.754 -0.552,0.435c-1.14,0.748 -2.433,1.29 -3.706,1.786c-3.946,1.531 -9.115,2.791 -13.584,3.816c-1.893,0.434 -1.339,3.071 0.561,2.634c4.798,-1.098 9.644,-2.278 14.256,-4.067c2.092,-0.811 5.096,-1.965 6.027,-4.081c2.125,-4.842 -8.677,-6.213 -11.629,-6.725c-11.825,-2.052 -24.106,-2.686 -36.223,-3.286c-18.412,-0.914 -36.906,-1.258 -55.408,-1.421c-22.744,-0.198 -45.517,-0.064 -68.304,0.263c-24.821,0.356 -49.659,0.954 -74.507,1.758c-24.916,0.806 -49.846,1.821 -74.783,3.09c-22.788,1.158 -45.583,2.519 -68.377,4.235c-18.465,1.392 -36.938,2.981 -55.377,5.19c-8.009,0.958 -16.019,2.156 -24.042,2.508c-2.508,0.108 -5.058,0.177 -7.521,-0.106c-0.31,-0.038 -1.348,-0.215 -1.973,-0.396c-0.256,-0.075 -0.864,-0.402 -0.827,-0.383c-0.179,-0.082 -0.077,-0.107 -0.075,-0.109c0.086,-0.087 -0.139,0.227 0.094,-0.22c-0.133,0.26 0.073,-0.132 0.279,-0.38c0.317,-0.383 -0.002,-0.048 0.39,-0.423c0.271,-0.262 0.56,-0.51 0.858,-0.752c0.688,-0.558 1.361,-1.016 1.952,-1.398c4.819,-3.093 10.19,-5.477 15.444,-7.777c18.202,-7.968 39.096,-16.029 57.91,-22.364c24.434,-8.229 44.08,-14.827 68.838,-21.944c24.627,-7.079 49.221,-14.123 74.16,-19.842c10.55,-2.418 22.877,-4.708 33.513,-6.614c5.952,-1.067 14.198,-1.384 19.869,0.494c3.356,1.11 5.043,3.66 4.997,6.929c-0.062,4.696 -2.362,9.477 -4.72,13.76c-7.925,14.383 -19.559,27.417 -30.886,39.788c-13.887,15.17 -28.666,29.679 -43.787,43.837c-12.498,11.704 -25.254,23.2 -38.396,34.298c-3.817,3.223 -7.654,6.448 -11.65,9.483c-2.161,1.642 -4.506,3.421 -7.113,4.315c-1.37,0.471 -1.76,0.515 -1.725,-0.717c0.057,-1.858 1.111,-3.877 1.977,-5.573c2.315,-4.529 5.55,-9.11 9.509,-12.66c2.669,-2.392 8.852,-6.594 11.866,-2.91c1.107,1.354 3.375,-0.588 2.275,-1.932" style="fill:#fff;fill-rule:nonzero;"/></g></svg>